<?xml version="1.0" encoding="UTF-8" standalone="no"?>
<!-- Created with Inkscape (http://www.inkscape.org/) -->
<svg
   xmlns:dc="http://purl.org/dc/elements/1.1/"
   xmlns:cc="http://web.resource.org/cc/"
   xmlns:rdf="http://www.w3.org/1999/02/22-rdf-syntax-ns#"
   xmlns:svg="http://www.w3.org/2000/svg"
   xmlns="http://www.w3.org/2000/svg"
   xmlns:sodipodi="http://inkscape.sourceforge.net/DTD/sodipodi-0.dtd"
   xmlns:inkscape="http://www.inkscape.org/namespaces/inkscape"
   width="612pt"
   height="792pt"
   id="svg1445"
   sodipodi:version="0.32"
   inkscape:version="0.43"
   version="1.0"
   sodipodi:docbase="/home/emmanuel/Projects/worldlabel/source"
   sodipodi:docname="wl-ol5075.svg">
  <defs
     id="defs1447" />
  <sodipodi:namedview
     id="base"
     pagecolor="#ffffff"
     bordercolor="#666666"
     borderopacity="1.0"
     inkscape:pageopacity="0.0"
     inkscape:pageshadow="2"
     inkscape:zoom="0.35"
     inkscape:cx="375"
     inkscape:cy="511.983"
     inkscape:document-units="px"
     inkscape:current-layer="layer1"
     inkscape:window-width="737"
     inkscape:window-height="539"
     inkscape:window-x="277"
     inkscape:window-y="177" />
  <metadata
     id="metadata1450">
    <rdf:RDF>
      <cc:Work
         rdf:about="">
        <dc:format>image/svg+xml</dc:format>
        <dc:type
           rdf:resource="http://purl.org/dc/dcmitype/StillImage" />
      </cc:Work>
    </rdf:RDF>
  </metadata>
  <g
     inkscape:label="Layer 1"
     inkscape:groupmode="layer"
     id="layer1">
    <path
       style="fill:#FFFFFE"
       d="M 0.52101443,991.00393 C 0.23446443,990.71737 4.4335937e-06,767.62426 4.4335937e-06,495.24147 L 4.4335937e-06,-1.4210855e-14 L 383.44136,0.3140009 L 766.88272,0.6280019 L 766.88272,496.07494 L 766.88272,991.52188 L 383.96237,991.52338 C 173.35619,991.52428 0.80757443,991.29048 0.52101443,991.00393 z M 764.59488,989.23482 C 765.16638,988.66334 765.6345,766.1334 765.63514,494.72387 L 765.63632,1.2519911 L 383.44215,1.2519911 L 1.2479844,1.2519911 L 1.2479844,495.76448 L 1.2479844,990.27697 L 382.40188,990.27544 C 592.03653,990.2746 764.02338,989.80632 764.59488,989.23482 z M 48.772574,928.29328 C 47.344024,927.76482 46.105014,926.47196 46.019214,925.42025 C 45.933414,924.36856 45.757404,830.70528 45.628084,717.27964 C 45.423144,537.52576 45.628214,510.77082 47.225484,508.86723 C 49.522744,506.1294 60.790454,505.85595 64.340574,508.45187 C 66.716694,510.18933 66.759334,513.86881 66.762124,717.44463 C 66.764824,913.67739 66.648334,924.78543 64.566014,926.86775 C 62.218994,929.21477 53.412414,930.00966 48.772574,928.29328 z M 64.091464,926.05867 C 66.001804,924.14833 66.152594,514.98701 64.244384,511.14 C 63.244524,509.12428 61.595224,508.48382 56.752704,508.23083 C 53.337444,508.05239 49.702874,508.45178 48.675904,509.11836 C 47.030684,510.18621 46.807654,534.93034 46.800144,717.2274 C 46.790534,950.45332 45.751354,928.47506 56.757694,927.82563 C 60.011424,927.63364 63.311614,926.83852 64.091464,926.05867 z M 90.696771,927.90753 L 87.982484,926.55431 L 87.903355,718.80276 C 87.83444,537.86616 88.060755,510.7693 89.65675,508.86723 C 90.975966,507.29502 93.332759,506.68327 98.070595,506.68327 C 109.70946,506.68327 108.57413,483.82556 108.57413,718.15195 C 108.57413,908.3896 108.40465,925.83908 106.5419,927.38502 C 104.06226,929.44294 94.414627,929.76109 90.696771,927.90753 z M 106.22921,925.80239 C 106.81151,924.88371 107.29653,831.16079 107.30704,717.52923 C 107.32176,558.48073 106.98145,510.58169 105.82858,509.42882 C 103.82677,507.42702 91.53783,507.47627 90.261947,509.49122 C 89.718664,510.34921 89.262623,603.99268 89.248522,717.58784 C 89.219617,950.46248 88.176584,928.47541 99.221785,927.8237 C 102.49358,927.63065 105.64692,926.72105 106.22921,925.80239 z M 370.31342,929.03233 C 370.15511,928.89412 365.53287,928.441 360.04177,928.02538 C 354.55066,927.60978 348.65397,926.98961 346.938,926.64723 C 345.22203,926.30485 342.41407,925.73348 340.6981,925.37752 C 338.98213,925.02156 336.06265,924.45239 334.21038,924.1127 C 332.35809,923.77301 329.40974,922.95032 327.65849,922.2845 C 325.90723,921.61866 324.47438,921.30734 324.47438,921.59265 C 324.47438,922.157 307.93629,916.75279 303.88274,914.86387 C 302.50996,914.22415 297.1616,911.77845 291.99749,909.42898 C 258.93396,894.38634 228.42127,868.27495 207.82453,837.39756 C 189.44724,809.84744 179.24478,783.7799 173.84944,750.59035 C 172.5496,742.59437 172.5496,698.82879 173.84944,690.8328 C 179.24043,657.66999 189.41901,631.65088 207.80806,604.02559 C 228.19794,573.39453 259.08463,546.96826 291.99749,531.99417 C 297.1616,529.6447 302.50996,527.199 303.88274,526.55929 C 307.93629,524.67036 324.47438,519.26615 324.47438,519.8305 C 324.47438,520.11581 325.89302,519.80989 327.62693,519.15066 C 329.36082,518.49144 332.30917,517.66044 334.17881,517.304 C 340.42426,516.11336 343.7929,515.45012 346.938,514.79194 C 361.21315,511.8045 393.7424,511.81685 413.70484,514.81729 C 427.18591,516.84355 449.64076,523.37325 461.75201,528.78905 C 475.06826,534.74368 477.44077,535.95056 486.71158,541.48581 C 520.9248,561.91326 548.20003,591.09598 566.08308,626.40823 C 574.39576,642.82262 582.32965,665.60613 584.79835,680.15228 C 585.08957,681.86825 585.5979,684.47366 585.92797,685.94209 C 588.99731,699.59727 588.99731,741.82589 585.92797,755.48107 C 585.5979,756.94949 585.08957,759.55491 584.79835,761.27088 C 582.32965,775.81703 574.39576,798.60053 566.08308,815.01492 C 548.20003,850.32717 520.9248,879.5099 486.71158,899.93735 C 481.56366,903.01097 475.38617,906.43453 472.98381,907.54527 C 446.39551,919.83841 427.31743,925.34536 402.00553,928.0334 C 395.12821,928.76374 370.88113,929.52801 370.31342,929.03233 z M 401.22506,926.7338 C 406.02977,926.2616 410.80329,925.65617 411.83287,925.38838 C 412.86245,925.1206 415.67041,924.59815 418.07276,924.22739 C 427.68291,922.74423 445.33133,917.94916 452.27924,914.9335 C 455.0869,913.71488 459.91124,911.6514 462.99999,910.34798 C 506.06698,892.17435 545.80544,853.98734 566.18651,811.19002 C 573.75206,795.30342 573.70494,795.41348 576.60567,786.85444 C 583.74112,765.80015 587.03467,744.91173 587.03467,720.71158 C 587.03467,696.51143 583.74112,675.623 576.60567,654.56872 C 573.70494,646.00967 573.75206,646.11973 566.18651,630.23314 C 545.83479,587.49745 506.00496,549.22264 462.99999,531.07517 C 459.91124,529.77176 455.0869,527.70828 452.27924,526.48965 C 445.29082,523.45641 427.56033,518.64548 418.07276,517.20816 C 415.67041,516.84422 413.04958,516.32836 412.24869,516.06179 C 409.46784,515.13623 389.93729,513.70226 380.00942,513.69472 C 370.23788,513.6873 356.26756,514.74832 348.80996,516.06425 C 335.28449,518.4509 329.66247,519.87159 315.98832,524.3584 C 270.62028,539.24469 232.92988,568.17948 206.5243,608.39351 C 195.5836,625.05554 182.73849,654.98944 178.94468,672.66441 C 178.42902,675.06676 177.8819,677.59392 177.72885,678.28031 C 174.63941,692.1351 174.093,698.51194 174.093,720.71158 C 174.093,740.1875 174.69319,749.21659 176.54021,757.52694 C 176.92159,759.24291 177.45536,761.77007 177.72636,763.14284 C 181.94289,784.50203 194.21433,814.28232 206.5243,833.02964 C 227.44798,864.8951 256.45645,890.43748 290.76082,907.20118 C 301.72898,912.56103 327.59777,921.39384 338.20215,923.39984 C 350.45912,925.71846 352.43103,926.00861 361.28975,926.79694 C 366.09446,927.22449 370.15895,927.68197 370.32197,927.81353 C 370.94796,928.31881 392.90237,927.55174 401.22506,926.7338 z M 366.21685,791.78149 C 334.75936,783.65137 313.15834,760.91026 308.78591,731.31939 C 307.82902,724.8436 307.86279,712.16428 308.84906,707.6078 C 309.22048,705.89183 309.82641,702.83552 310.19556,700.816 C 312.34398,689.06264 325.05029,670.13115 336.52529,661.58658 C 351.78944,650.22049 363.89476,646.42743 383.12937,646.98374 C 399.55023,647.45867 401.46431,647.8909 413.70484,653.88806 C 434.49244,664.07281 449.30427,683.11672 453.79964,705.43887 C 455.06978,711.74589 455.13188,727.67558 453.90783,733.19136 C 453.29854,735.93691 452.54155,739.53138 452.22563,741.17907 C 451.26346,746.19737 444.55833,758.69049 439.18919,765.46884 C 429.69633,777.45321 413.48533,788.10159 399.81217,791.33408 C 390.95489,793.42805 373.48785,793.66066 366.21685,791.78149 z M 400.60107,789.43724 C 428.36866,780.49567 446.82672,760.47054 452.64536,732.97448 C 453.63962,728.27601 453.65769,713.24395 452.67676,706.84585 C 449.61021,686.84447 433.1116,664.7668 414.32883,655.53046 C 411.27444,654.02847 404.33322,651.34955 403.09702,651.19561 C 402.75383,651.15286 400.50747,650.42917 398.10511,649.5874 C 391.63881,647.32163 373.75014,647.30321 365.03368,649.55333 C 336.78584,656.84541 316.33911,678.46694 310.03264,707.71459 C 309.17112,711.71007 309.201,727.38241 310.07764,731.31939 C 310.45974,733.03536 311.07227,736.12411 311.43881,738.18328 C 311.80536,740.24244 314.10733,746.0533 316.5543,751.0963 C 326.10521,770.77991 347.01279,786.985 367.69646,790.73567 C 369.63294,791.08682 371.38125,791.53804 371.58158,791.73836 C 372.8768,793.03359 394.84158,791.29188 400.60107,789.43724 z M 47.521214,489.30959 C 45.734814,487.52319 45.546104,467.47769 45.551204,280.04877 C 45.555934,106.36385 45.834024,72.429616 47.266814,70.703213 C 49.665724,67.812709 62.650954,67.811028 65.049344,70.700911 C 66.479524,72.424172 66.758784,106.36933 66.765914,279.35568 C 66.775554,513.29238 67.908054,490.72784 56.139334,491.08414 C 51.530654,491.22366 48.891954,490.68033 47.521214,489.30959 z M 62.588834,489.34529 C 63.036484,489.27175 63.908434,487.6672 64.526504,485.77963 C 65.175444,483.79779 65.621704,396.08067 65.582674,278.18073 C 65.526044,107.15047 65.237394,73.67919 63.804194,71.95229 C 61.392544,69.046428 50.944454,69.129899 48.473464,72.074769 C 46.876274,73.978263 46.671134,100.58268 46.876064,279.23919 C 47.005384,391.97845 47.181394,485.08014 47.267194,486.13184 C 47.517124,489.19553 54.538084,490.66806 62.588834,489.34529 z M 89.952474,489.30959 C 88.166079,487.52319 87.977369,467.47769 87.982471,280.04877 C 87.987198,106.36385 88.265292,72.429616 89.69808,70.703213 C 91.757879,68.221308 104.73712,67.800968 107.07656,70.140403 C 108.22936,71.293203 108.57413,119.52639 108.57413,279.64798 C 108.57413,466.85521 108.37882,487.82006 106.62122,489.27875 C 103.70431,491.69958 92.363439,491.72056 89.952474,489.30959 z M 105.29392,488.0966 C 107.15658,486.55073 107.32615,469.19611 107.32615,280.11151 C 107.32615,49.368003 108.21747,69.873167 98.189165,69.909917 C 95.321043,69.920428 92.13286,70.461011 91.104314,71.111213 C 89.455665,72.153414 89.224565,96.792324 89.15261,279.19251 C 89.086605,446.51086 89.379307,486.46261 90.682644,488.03086 C 92.689312,490.4454 102.41109,490.48914 105.29392,488.0966 z M 370.31342,479.76008 C 370.15511,479.62187 365.53287,479.16875 360.04177,478.75314 C 354.55066,478.33754 348.65397,477.71737 346.938,477.37498 C 345.22203,477.0326 342.41407,476.46124 340.6981,476.10528 C 338.98213,475.74932 336.06265,475.18014 334.21038,474.84045 C 332.35809,474.50076 329.40974,473.67807 327.65849,473.01225 C 325.90723,472.34642 324.47438,472.03509 324.47438,472.32041 C 324.47438,472.88476 307.93629,467.48055 303.88274,465.59162 C 302.50996,464.95191 297.1616,462.5062 291.99749,460.15674 C 258.93396,445.11409 228.42127,419.0027 207.82453,388.12532 C 189.44724,360.57519 179.24478,334.50766 173.84944,301.31811 C 172.5496,293.32212 172.5496,249.55654 173.84944,241.56055 C 179.24043,208.39775 189.41901,182.37863 207.80806,154.75334 C 228.19794,124.12229 259.08463,97.696024 291.99749,82.721921 C 297.1616,80.372447 302.50996,77.926752 303.88274,77.287045 C 307.93629,75.398112 324.47438,69.993909 324.47438,70.558253 C 324.47438,70.843569 325.89302,70.537642 327.62693,69.878416 C 329.36082,69.219189 332.30917,68.388193 334.17881,68.031758 C 340.42426,66.841103 343.7929,66.177871 346.938,65.519684 C 361.21315,62.532254 393.7424,62.54461 413.70484,65.545046 C 427.18591,67.571307 449.64076,74.101005 461.75201,79.516796 C 475.06826,85.471432 477.44077,86.678311 486.71158,92.213564 C 520.9248,112.641 548.20003,141.82374 566.08308,177.13599 C 574.39576,193.55037 582.32965,216.33388 584.79835,230.88003 C 585.08957,232.596 585.5979,235.20142 585.92797,236.66984 C 588.99731,250.32502 588.99731,292.55364 585.92797,306.20882 C 585.5979,307.67724 585.08957,310.28266 584.79835,311.99863 C 582.32965,326.54478 574.39576,349.32829 566.08308,365.74267 C 548.20003,401.05492 520.9248,430.23765 486.71158,450.6651 C 481.56366,453.73872 475.38617,457.16229 472.98381,458.27302 C 446.39551,470.56616 427.31743,476.07312 402.00553,478.76115 C 395.12821,479.49149 370.88113,480.25577 370.31342,479.76008 z M 401.22506,477.46155 C 406.02977,476.98936 410.80329,476.38393 411.83287,476.11613 C 412.86245,475.84836 415.67041,475.3259 418.07276,474.95514 C 427.68291,473.47198 445.33133,468.67691 452.27924,465.66126 C 455.0869,464.44263 459.91124,462.37915 462.99999,461.07573 C 506.06698,442.9021 545.80544,404.71509 566.18651,361.91777 C 573.75206,346.03118 573.70494,346.14124 576.60567,337.58219 C 583.74112,316.5279 587.03467,295.63948 587.03467,271.43933 C 587.03467,247.23918 583.74112,226.35075 576.60567,205.29647 C 573.70494,196.73742 573.75206,196.84748 566.18651,180.96089 C 545.83479,138.2252 506.00496,99.950394 462.99999,81.802919 C 459.91124,80.499512 455.0869,78.436029 452.27924,77.217399 C 445.29082,74.184166 427.56033,69.373229 418.07276,67.935917 C 415.67041,67.571974 413.04958,67.056106 412.24869,66.789544 C 409.46784,65.863982 389.93729,64.43001 380.00942,64.422472 C 370.23788,64.415053 356.26756,65.476067 348.80996,66.792 C 335.28449,69.178646 329.66247,70.599349 315.98832,75.086154 C 270.62028,89.972446 232.92988,118.90723 206.5243,159.12127 C 195.5836,175.78329 182.73849,205.71719 178.94468,223.39216 C 178.42902,225.79452 177.8819,228.32167 177.72885,229.00806 C 174.63941,242.86286 174.093,249.23969 174.093,271.43933 C 174.093,290.91526 174.69319,299.94434 176.54021,308.25469 C 176.92159,309.97066 177.45536,312.49782 177.72636,313.8706 C 181.94289,335.22979 194.21433,365.01007 206.5243,383.75739 C 227.44798,415.62285 256.45645,441.16524 290.76082,457.92893 C 301.72898,463.28879 327.59777,472.12159 338.20215,474.12759 C 350.45912,476.44621 352.43103,476.73637 361.28975,477.52469 C 366.09446,477.95225 370.15895,478.40972 370.32197,478.54128 C 370.94796,479.04656 392.90237,478.27949 401.22506,477.46155 z M 366.21685,342.50924 C 334.75936,334.37913 313.15834,311.63801 308.78591,282.04715 C 307.82902,275.57135 307.86279,262.89204 308.84906,258.33556 C 309.22048,256.61958 309.82641,253.56327 310.19556,251.54376 C 312.34398,239.7904 325.05029,220.8589 336.52529,212.31433 C 351.78944,200.94824 363.89476,197.15518 383.12937,197.71149 C 399.55023,198.18643 401.46431,198.61865 413.70484,204.61581 C 434.49244,214.80056 449.30427,233.84448 453.79964,256.16662 C 455.06978,262.47364 455.13188,278.40334 453.90783,283.91911 C 453.29854,286.66467 452.54155,290.25913 452.22563,291.90682 C 451.26346,296.92512 444.55833,309.41825 439.18919,316.19659 C 429.69633,328.18097 413.48533,338.82934 399.81217,342.06183 C 390.95489,344.1558 373.48785,344.38841 366.21685,342.50924 z M 400.60107,340.16499 C 428.36866,331.22343 446.82672,311.19829 452.64536,283.70223 C 453.63962,279.00376 453.65769,263.9717 452.67676,257.5736 C 449.61021,237.57223 433.1116,215.49455 414.32883,206.25821 C 411.27444,204.75622 404.33322,202.0773 403.09702,201.92336 C 402.75383,201.88062 400.50747,201.15693 398.10511,200.31515 C 391.63881,198.04938 373.75014,198.03096 365.03368,200.28108 C 336.78584,207.57316 316.33911,229.1947 310.03264,258.44234 C 309.17112,262.43782 309.201,278.11016 310.07764,282.04715 C 310.45974,283.76312 311.07227,286.85186 311.43881,288.91103 C 311.80536,290.97019 314.10733,296.78105 316.5543,301.82405 C 326.10521,321.50766 347.01279,337.71275 367.69646,341.46343 C 369.63294,341.81457 371.38125,342.26579 371.58158,342.46611 C 372.8768,343.76134 394.84158,342.01964 400.60107,340.16499 z "
       id="path1481" />
  </g>
</svg>
